<?xml version="1.0" standalone="no"?>
<!DOCTYPE svg PUBLIC "-//W3C//DTD SVG 20010904//EN"
 "http://www.w3.org/TR/2001/REC-SVG-20010904/DTD/svg10.dtd">
<svg version="1.0" xmlns="http://www.w3.org/2000/svg"
 width="296.000000pt" height="254.000000pt" viewBox="0 0 296.000000 254.000000"
 preserveAspectRatio="xMidYMid meet">

<g transform="translate(0.000000,254.000000) scale(0.100000,-0.100000)"
fill="#000000" stroke="none">
<path d="M2070 2460 c-8 -5 -34 -10 -57 -10 -51 0 -131 -44 -139 -77 -4 -13
-10 -23 -14 -23 -12 0 -19 -39 -9 -46 5 -3 9 -20 9 -38 0 -28 -4 -34 -25 -38
-13 -3 -22 -1 -19 3 7 12 -103 11 -147 -1 -58 -16 -162 -84 -196 -129 l-33
-43 0 34 c0 26 -8 39 -34 60 -30 24 -38 26 -67 18 -84 -24 -144 -2 -154 58 -5
32 -12 40 -41 51 -30 11 -38 10 -68 -8 -49 -31 -93 -27 -132 10 -30 30 -35 31
-71 22 -21 -6 -108 -55 -193 -111 -206 -134 -228 -150 -247 -178 -14 -22 -14
-26 1 -49 9 -13 16 -27 16 -30 0 -2 -25 -19 -55 -36 -57 -32 -101 -81 -92
-102 3 -7 14 -35 26 -64 l20 -52 -39 -22 c-32 -18 -40 -29 -40 -50 0 -23 9
-32 53 -56 71 -38 74 -63 13 -100 -36 -22 -46 -34 -46 -55 0 -35 13 -46 98
-87 90 -43 94 -58 40 -124 -40 -47 -41 -51 -27 -75 11 -20 32 -32 84 -48 89
-28 98 -41 83 -120 -9 -53 -9 -64 7 -87 16 -25 23 -27 85 -27 93 0 105 -14 93
-108 -8 -62 -7 -73 10 -96 18 -24 24 -26 104 -26 76 0 87 -2 104 -23 10 -12
19 -33 19 -47 2 -110 31 -133 138 -108 63 16 66 15 97 -5 21 -13 37 -37 48
-67 14 -38 23 -48 51 -57 31 -10 38 -7 85 25 l51 36 28 -27 c52 -50 78 -41
245 84 90 67 147 117 147 127 0 12 21 27 65 46 36 16 74 40 85 53 19 25 19 25
-5 57 l-24 31 54 35 c40 26 56 43 61 65 6 26 1 34 -42 71 -27 24 -47 44 -44
46 3 2 24 19 48 37 59 46 57 72 -7 107 -46 25 -69 50 -56 62 3 3 5 -1 5 -8 0
-19 60 67 61 87 0 10 3 13 5 6 3 -7 11 -10 17 -8 7 3 32 -1 57 -9 36 -11 46
-18 50 -40 l5 -27 36 38 c37 39 62 99 37 90 -7 -2 -12 -9 -11 -14 1 -6 -12
-23 -30 -39 -29 -26 -30 -26 -9 -3 13 15 22 35 20 44 -2 11 4 19 15 21 10 1
30 10 45 20 15 10 33 17 40 16 16 -4 15 6 -3 24 -8 9 -15 31 -15 51 0 33 -2
35 -25 29 -21 -5 -25 -3 -25 18 0 19 6 25 30 28 30 5 30 4 30 -43 0 -36 6 -55
24 -76 22 -26 27 -27 56 -16 27 10 30 10 19 -3 -10 -12 -9 -13 4 -8 8 3 18 12
21 20 3 9 10 12 16 9 6 -3 7 1 4 9 -5 14 8 22 20 14 8 -6 54 61 79 115 38 82
39 100 3 107 -31 5 -49 30 -22 30 16 0 192 -36 229 -46 9 -3 17 -12 17 -20 0
-23 20 -16 30 12 6 14 10 41 10 60 0 26 -4 33 -17 32 -34 -3 -64 2 -60 10 3 4
-16 7 -42 8 -26 0 -56 6 -67 13 -17 10 -15 11 11 6 29 -5 29 -5 5 5 -25 10
-25 12 -27 123 0 61 -6 124 -11 139 -12 29 -66 68 -117 85 -22 7 -31 17 -33
36 -2 15 -12 32 -23 37 -11 6 -19 21 -19 36 0 15 -4 23 -11 19 -6 -4 -9 0 -7
11 3 20 -38 46 -62 39 -12 -4 -15 5 -13 43 0 26 4 55 8 65 9 23 0 46 -22 54
-10 3 -25 12 -35 20 -11 10 -18 11 -23 3 -4 -6 7 -16 24 -23 l31 -13 -28 -27
c-15 -15 -33 -27 -40 -27 -7 0 -12 -7 -12 -16 0 -13 -7 -15 -30 -10 -23 4 -29
2 -24 -7 4 -7 3 -8 -2 -4 -14 13 -11 31 6 39 9 4 3 7 -16 7 -35 1 -57 -18 -49
-42 8 -18 57 -27 82 -14 17 9 17 8 1 -8 -12 -13 -25 -16 -52 -11 -19 4 -39 13
-43 21 -7 12 -27 19 -146 47 -35 8 -36 10 -21 25 10 10 39 18 73 21 31 3 59 9
62 15 4 5 12 6 19 2 9 -6 9 -9 -1 -16 -10 -6 -5 -9 14 -9 26 0 27 1 13 16 -18
18 -21 28 -5 19 6 -4 13 2 16 13 2 11 14 23 26 26 12 3 19 7 17 9 -12 10 -126
16 -140 7z m-31 -49 c-13 -11 -26 -17 -29 -14 -3 2 6 13 20 23 32 24 40 16 9
-9z m104 22 c-7 -2 -19 -2 -25 0 -7 3 -2 5 12 5 14 0 19 -2 13 -5z m-53 -23
c6 -11 8 -20 6 -20 -3 0 -10 9 -16 20 -6 11 -8 20 -6 20 3 0 10 -9 16 -20z
m-1050 -320 c45 -7 45 -7 -18 -9 -102 -2 -155 -43 -187 -144 -27 -86 -21 -98
54 -113 124 -25 294 -127 399 -238 l52 -55 103 71 c182 127 171 117 150 141
-15 18 -15 19 -1 9 16 -13 138 -194 138 -206 0 -3 -60 -44 -132 -92 -73 -47
-134 -88 -136 -89 -5 -5 27 -63 39 -71 13 -8 269 163 269 180 1 13 49 -74 50
-89 0 -6 -15 -19 -32 -30 -96 -56 -248 -160 -248 -169 1 -45 19 -37 255 112
55 34 54 34 69 -34 l7 -31 -146 -84 -147 -84 6 -34 c3 -18 7 -36 10 -38 2 -3
70 30 151 73 117 61 149 74 156 63 5 -8 8 -18 8 -24 0 -5 -3 -5 -6 2 -5 14
-303 -130 -303 -147 0 -6 2 -10 5 -10 3 0 71 31 151 70 80 38 148 70 150 70 2
0 4 -17 4 -37 l0 -38 -153 -70 -152 -71 -3 -42 c-2 -23 1 -42 6 -42 5 0 71 27
147 60 76 33 141 57 144 54 12 -12 -45 -98 -82 -122 -93 -62 -271 -27 -427 83
-257 181 -487 498 -551 760 -12 50 -27 110 -34 135 l-12 45 -89 17 c-117 24
-116 23 -65 38 23 8 45 20 48 27 3 7 -9 30 -26 52 -51 65 -39 107 28 96 50 -8
54 7 15 72 l-25 43 20 29 21 29 137 -55 c76 -31 158 -59 183 -63z m1384 98
c23 -32 20 -41 -11 -33 -36 8 -47 20 -40 39 9 23 33 20 51 -6z m-30 -86 c3 -5
-1 -9 -9 -9 -8 0 -12 4 -9 9 3 4 7 8 9 8 2 0 6 -4 9 -8z m76 -32 c-6 -10 -10
-28 -10 -40 0 -20 -1 -20 -30 -5 -51 26 -31 78 26 67 19 -3 22 -8 14 -22z
m-217 13 c-7 -2 -19 -2 -25 0 -7 3 -2 5 12 5 14 0 19 -2 13 -5z m-1126 -9 c-3
-3 -12 -4 -19 -1 -8 3 -5 6 6 6 11 1 17 -2 13 -5z m1250 -16 c-3 -8 -6 -5 -6
6 -1 11 2 17 5 13 3 -3 4 -12 1 -19z m-1137 -28 c33 -17 60 -33 60 -35 0 -5
-119 52 -129 61 -13 12 16 1 69 -26z m947 23 c-4 -3 1 -12 11 -20 16 -14 16
-14 -1 -9 -10 3 -25 6 -33 6 -8 0 -11 6 -8 15 4 8 13 15 22 15 8 0 12 -3 9 -7z
m173 -27 c0 -8 -4 -18 -10 -21 -5 -3 -10 3 -10 14 0 12 5 21 10 21 6 0 10 -6
10 -14z m-505 -16 c26 -29 15 -31 -24 -3 -27 18 -30 23 -14 23 11 0 28 -9 38
-20z m460 -10 c3 -6 -1 -7 -9 -4 -18 7 -21 14 -7 14 6 0 13 -4 16 -10z m223
-11 c-25 -19 -33 -18 -25 3 2 8 14 14 26 14 l22 0 -23 -17z m-1143 -54 c33
-24 71 -56 85 -71 17 -20 12 -17 -17 8 -23 21 -67 54 -98 74 -30 20 -55 39
-55 41 0 6 17 -5 85 -52z m865 45 c18 -12 2 -12 -25 0 -13 6 -15 9 -5 9 8 0
22 -4 30 -9z m-123 -16 c-3 -3 -12 -4 -19 -1 -8 3 -5 6 6 6 11 1 17 -2 13 -5z
m-350 -19 c0 -8 -4 -15 -9 -15 -4 0 -8 7 -8 15 0 8 4 15 8 15 5 0 9 -7 9 -15z
m400 9 c-3 -3 -12 -4 -19 -1 -8 3 -5 6 6 6 11 1 17 -2 13 -5z m40 -10 c-3 -3
-12 -4 -19 -1 -8 3 -5 6 6 6 11 1 17 -2 13 -5z m-227 -14 c0 -5 6 -7 14 -4 7
3 68 -6 135 -20 67 -14 123 -26 126 -26 3 0 5 -9 5 -20 0 -11 -3 -20 -7 -20
-27 0 -302 66 -311 74 -2 3 -1 9 3 15 8 14 35 14 35 1z m271 -7 c13 -17 13
-17 -6 -3 -11 8 -22 16 -24 17 -2 2 0 3 6 3 6 0 17 -8 24 -17z m-436 -13 c-3
-5 -14 -10 -23 -9 -14 0 -13 2 3 9 27 11 27 11 20 0z m5 -40 c-19 -5 -38 -5
-43 -1 -4 4 12 8 35 8 l43 2 -35 -9z m127 -16 c-3 -3 -12 -4 -19 -1 -8 3 -5 6
6 6 11 1 17 -2 13 -5z m413 2 c0 -11 -19 -15 -25 -6 -3 5 1 10 9 10 9 0 16 -2
16 -4z m-57 -33 c-3 -27 -3 -27 7 -5 9 22 11 22 35 6 23 -15 25 -15 25 2 0 9
3 15 6 12 3 -4 1 -23 -5 -45 -9 -34 -9 -36 4 -19 8 11 15 23 15 27 0 4 8 7 18
6 16 -1 18 -6 11 -41 -11 -56 -11 -56 6 -56 8 0 15 -5 15 -11 0 -6 -9 -9 -20
-6 -20 5 -21 2 -34 -55 -4 -19 -11 -26 -21 -22 -12 5 -14 18 -10 58 l5 51 -16
-52 c-15 -47 -19 -51 -35 -42 -11 5 -24 7 -29 4 -6 -3 -10 2 -11 12 0 11 -3
13 -6 5 -4 -9 -12 -8 -36 5 -18 10 -34 21 -35 26 -2 4 -8 5 -12 2 -5 -3 -12 0
-16 6 -5 9 3 10 31 5 34 -7 37 -6 32 13 -2 11 -1 21 4 23 5 2 14 26 21 55 9
39 18 53 33 56 11 2 21 5 21 6 1 0 0 -11 -3 -26z m-788 -3 c10 -11 16 -20 13
-20 -3 0 -13 9 -23 20 -10 11 -16 20 -13 20 3 0 13 -9 23 -20z m668 -17 c-7
-2 -19 -2 -25 0 -7 3 -2 5 12 5 14 0 19 -2 13 -5z m-348 -41 c-3 -3 -11 0 -18
7 -9 10 -8 11 6 5 10 -3 15 -9 12 -12z m52 -8 c-3 -3 -12 -4 -19 -1 -8 3 -5 6
6 6 11 1 17 -2 13 -5z m53 -14 c8 -5 11 -10 5 -10 -5 0 -17 5 -25 10 -8 5 -10
10 -5 10 6 0 17 -5 25 -10z m273 3 c-7 -2 -21 -2 -30 0 -10 3 -4 5 12 5 17 0
24 -2 18 -5z m-353 -33 c0 -5 -4 -10 -10 -10 -5 0 -10 5 -10 10 0 6 5 10 10
10 6 0 10 -4 10 -10z m40 -10 c0 -5 -5 -10 -11 -10 -5 0 -7 5 -4 10 3 6 8 10
11 10 2 0 4 -4 4 -10z m625 -19 c3 -5 -8 -9 -24 -9 -17 1 -28 5 -25 10 7 11
41 10 49 -1z m203 -33 c53 -13 82 -25 82 -34 0 -17 -26 -18 -88 -3 -104 25
-182 50 -182 60 0 14 77 4 188 -23z m-868 12 c0 -5 -2 -10 -4 -10 -3 0 -8 5
-11 10 -3 6 -1 10 4 10 6 0 11 -4 11 -10z m45 -10 c3 -5 1 -10 -4 -10 -6 0
-11 5 -11 10 0 6 2 10 4 10 3 0 8 -4 11 -10z m45 -10 c0 -5 -2 -10 -4 -10 -3
0 -8 5 -11 10 -3 6 -1 10 4 10 6 0 11 -4 11 -10z m243 3 c-7 -2 -21 -2 -30 0
-10 3 -4 5 12 5 17 0 24 -2 18 -5z m12 -23 c3 -6 -1 -7 -9 -4 -18 7 -21 14 -7
14 6 0 13 -4 16 -10z m312 -42 c-3 -7 -5 -2 -5 12 0 14 2 19 5 13 2 -7 2 -19
0 -25z m-334 15 c-7 -2 -19 -2 -25 0 -7 3 -2 5 12 5 14 0 19 -2 13 -5z m107
-31 c0 -14 -2 -14 -9 -3 -5 7 -14 10 -20 7 -6 -4 -19 -3 -28 2 -13 8 -9 10 20
10 28 0 37 -4 37 -16z m264 -33 c-8 -16 -22 -29 -30 -29 -13 0 -14 3 -5 14 8
10 9 16 2 21 -16 9 10 33 31 27 16 -4 16 -7 2 -33z m-379 21 c3 -6 -1 -7 -9
-4 -18 7 -21 14 -7 14 6 0 13 -4 16 -10z m95 -20 c0 -9 -48 -1 -55 9 -2 4 9 5
26 3 16 -2 29 -8 29 -12z m103 -38 c3 7 6 -13 6 -45 1 -37 7 -67 18 -84 14
-21 15 -25 3 -22 -20 7 -47 64 -55 119 -7 39 -6 43 8 32 12 -10 16 -10 20 0z
m-115 -55 c4 -34 -11 -35 -26 -2 -16 34 -15 37 6 33 10 -2 18 -14 20 -31z
m-121 -3 c-3 -3 -12 -4 -19 -1 -8 3 -5 6 6 6 11 1 17 -2 13 -5z m10 -70 c-3
-3 -12 -4 -19 -1 -8 3 -5 6 6 6 11 1 17 -2 13 -5z m-108 -30 c25 -7 50 -10 55
-5 19 14 126 -3 126 -21 0 -6 -9 -8 -22 -4 -57 15 -98 18 -98 7 0 -7 -4 -10
-9 -7 -4 3 -14 -7 -20 -22 -11 -23 -14 -24 -22 -10 -5 9 -32 24 -60 34 -28 10
-55 27 -61 37 -8 17 -6 18 29 11 21 -4 58 -13 82 -20z"/>
<path d="M2291 1694 c0 -11 3 -14 6 -6 3 7 2 16 -1 19 -3 4 -6 -2 -5 -13z"/>
<path d="M2188 2413 c18 -7 4 -23 -16 -17 -14 5 -14 4 -2 -4 10 -8 18 -8 27 0
18 15 16 28 -4 27 -11 0 -13 -3 -5 -6z"/>
<path d="M1993 2343 c9 -2 23 -2 30 0 6 3 -1 5 -18 5 -16 0 -22 -2 -12 -5z"/>
<path d="M365 770 c-7 -12 2 -12 30 0 19 8 19 9 -2 9 -12 1 -25 -3 -28 -9z"/>
</g>
</svg>
